<svg width="148" height="105" viewBox="0 0 148 105" fill="none" xmlns="http://www.w3.org/2000/svg">
<g clip-path="url(#clip0_0_89)">
<path d="M25.1813 33.4737C22.84 33.4737 20.7268 33.0088 18.8417 32.0789C16.9566 31.1491 15.3299 29.8939 13.9616 28.3132C12.5934 26.7015 11.5292 24.9038 10.7691 22.9202C10.0393 20.9055 9.67447 18.8445 9.67447 16.7368C9.67447 14.5362 10.0697 12.4441 10.8603 10.4605C11.6508 8.44587 12.7454 6.66375 14.1441 5.11404C15.5427 3.53333 17.1846 2.29357 19.0698 1.39474C20.9853 0.464912 23.0528 0 25.2725 0C27.5833 0 29.6812 0.480412 31.5664 1.44123C33.4819 2.40204 35.1086 3.6883 36.4465 5.3C37.8147 6.91169 38.8637 8.70939 39.5934 10.693C40.3535 12.6766 40.7336 14.7068 40.7336 16.7833C40.7336 18.9839 40.3383 21.0915 39.5478 23.1061C38.7876 25.0897 37.7083 26.8719 36.3096 28.4526C34.9109 30.0024 33.2539 31.2266 31.3384 32.1254C29.4532 33.0243 27.4008 33.4737 25.1813 33.4737ZM14.8738 16.7368C14.8738 18.2866 15.117 19.7897 15.6036 21.2465C16.09 22.7032 16.7741 24.005 17.6559 25.1518C18.5681 26.2675 19.6627 27.1509 20.9397 27.8018C22.2167 28.4526 23.6457 28.7781 25.2269 28.7781C26.8688 28.7781 28.3282 28.4371 29.6052 27.7553C30.8823 27.0734 31.9464 26.159 32.7978 25.0123C33.6795 23.8345 34.3485 22.5327 34.8046 21.107C35.2607 19.6503 35.4887 18.1936 35.4887 16.7368C35.4887 15.1871 35.2454 13.6994 34.759 12.2737C34.3029 10.8169 33.6188 9.5307 32.7066 8.41491C31.7944 7.26812 30.6998 6.3693 29.4228 5.71842C28.1762 5.06754 26.7775 4.74211 25.2269 4.74211C23.585 4.74211 22.1255 5.08304 20.8485 5.76491C19.5715 6.44678 18.492 7.36111 17.6103 8.50789C16.7285 9.65465 16.0444 10.941 15.558 12.3667C15.1019 13.7924 14.8738 15.2491 14.8738 16.7368ZM87.2061 0.232456V33.2412H82.0524V18.6895H65.7247V33.2412H60.6166V0.232456H65.7247V14.0404H82.0524V0.232456H87.2061ZM122.56 33.4737C120.219 33.4737 118.106 33.0088 116.22 32.0789C114.336 31.1491 112.708 29.8939 111.34 28.3132C109.972 26.7015 108.908 24.9038 108.147 22.9202C107.418 20.9055 107.053 18.8445 107.053 16.7368C107.053 14.5362 107.449 12.4441 108.239 10.4605C109.029 8.44587 110.124 6.66375 111.522 5.11404C112.922 3.53333 114.564 2.29357 116.448 1.39474C118.364 0.464912 120.432 0 122.651 0C124.962 0 127.06 0.480412 128.945 1.44123C130.86 2.40204 132.488 3.6883 133.825 5.3C135.193 6.91169 136.242 8.70939 136.972 10.693C137.733 12.6766 138.112 14.7068 138.112 16.7833C138.112 18.9839 137.717 21.0915 136.926 23.1061C136.166 25.0897 135.087 26.8719 133.688 28.4526C132.29 30.0024 130.632 31.2266 128.717 32.1254C126.832 33.0243 124.78 33.4737 122.56 33.4737ZM112.252 16.7368C112.252 18.2866 112.496 19.7897 112.982 21.2465C113.469 22.7032 114.153 24.005 115.034 25.1518C115.946 26.2675 117.041 27.1509 118.318 27.8018C119.595 28.4526 121.024 28.7781 122.605 28.7781C124.247 28.7781 125.707 28.4371 126.984 27.7553C128.261 27.0734 129.325 26.159 130.176 25.0123C131.058 23.8345 131.727 22.5327 132.183 21.107C132.639 19.6503 132.867 18.1936 132.867 16.7368C132.867 15.1871 132.624 13.6994 132.137 12.2737C131.681 10.8169 130.997 9.5307 130.085 8.41491C129.173 7.26812 128.078 6.3693 126.801 5.71842C125.555 5.06754 124.156 4.74211 122.605 4.74211C120.963 4.74211 119.504 5.08304 118.227 5.76491C116.95 6.44678 115.871 7.36111 114.989 8.50789C114.107 9.65465 113.423 10.941 112.936 12.3667C112.48 13.7924 112.252 15.2491 112.252 16.7368ZM35.7263 37.3789H24.9628V65.7851H19.8091V37.3789H9V32.7763H35.7263V37.3789ZM67.2968 61.1825V65.7851H45.0856V32.7763H66.8863V37.3789H50.1938V46.7702H64.6515V51.0939H50.1938V61.1825H67.2968ZM77.6288 65.7851V32.7763H100.388V37.3325H82.7369V46.5842H92.2234C95.8113 46.5842 98.5022 47.452 100.296 49.1877C102.09 50.8924 102.987 53.155 102.987 55.9754C102.987 57.866 102.591 59.5553 101.802 61.043C101.041 62.4997 99.886 63.662 98.3353 64.5298C96.8147 65.3667 94.8839 65.7851 92.5426 65.7851H77.6288ZM82.7369 61.2289H91.8585C93.2572 61.2289 94.3822 60.9655 95.2335 60.4386C96.1153 59.9117 96.739 59.2454 97.1039 58.4395C97.4988 57.6026 97.6968 56.7348 97.6968 55.836C97.6968 54.9371 97.529 54.1003 97.1951 53.3254C96.8603 52.5506 96.2519 51.9307 95.3703 51.4658C94.519 50.9699 93.318 50.7219 91.7673 50.7219H82.7369V61.2289ZM135.009 61.1825V65.7851H112.798V32.7763H134.598V37.3789H117.906V46.7702H132.364V51.0939H117.906V61.1825H135.009ZM35.6127 65.3202V98.3289H30.4589V83.7772H14.1312V98.3289H9.02316V65.3202H14.1312V79.1281H30.4589V65.3202H35.6127ZM53.1793 65.3202H58.0137L70.6016 98.3289H65.2198L61.7992 89.3561H49.3026L45.9276 98.3289H40.5002L53.1793 65.3202ZM60.7958 85.4974L55.5965 71.0386L50.2147 85.4974H60.7958ZM70.4103 104.652V93.7263H71.961C72.8123 93.7263 73.542 93.3851 74.1501 92.7035C74.7887 92.0219 75.3207 90.9368 75.7464 89.4491C76.2025 87.9614 76.5521 86.0088 76.7954 83.5912C77.0691 81.1427 77.2666 78.1517 77.3883 74.6184L77.6164 65.3202H98.4594V93.7263H102.564V104.652H98.0489V98.3289H74.9255V104.652H70.4103ZM78.4373 93.7263H93.3055V69.9228H82.3596L82.2228 75.3158C82.1316 78.8801 81.9491 81.902 81.6755 84.3816C81.4018 86.8301 81.0065 88.8138 80.4897 90.3325C79.9728 91.8509 79.2886 92.9825 78.4373 93.7263ZM122.379 98.5614C120.037 98.5614 117.925 98.0965 116.039 97.1667C114.154 96.2368 112.528 94.9816 111.159 93.4009C109.791 91.7892 108.727 89.9915 107.967 88.0079C107.237 85.9932 106.872 83.9322 106.872 81.8246C106.872 79.6239 107.267 77.5318 108.058 75.5482C108.849 73.5336 109.943 71.7515 111.342 70.2018C112.74 68.6211 114.382 67.3813 116.268 66.4825C118.183 65.5526 120.251 65.0877 122.47 65.0877C124.781 65.0877 126.879 65.5682 128.764 66.5289C130.68 67.4897 132.306 68.776 133.644 70.3877C135.012 71.9994 136.061 73.7971 136.791 75.7807C137.551 77.7643 137.931 79.7945 137.931 81.8711C137.931 84.0717 137.536 86.1792 136.746 88.1939C135.986 90.1775 134.906 91.9596 133.507 93.5403C132.109 95.0904 130.452 96.314 128.536 97.2132C126.651 98.1123 124.598 98.5614 122.379 98.5614ZM112.072 81.8246C112.072 83.3743 112.315 84.8774 112.801 86.3342C113.287 87.791 113.972 89.0927 114.854 90.2395C115.766 91.3553 116.86 92.2386 118.137 92.8895C119.414 93.5404 120.844 93.8658 122.425 93.8658C124.066 93.8658 125.526 93.5245 126.803 92.843C128.08 92.1614 129.144 91.2468 129.996 90.1C130.878 88.9222 131.546 87.6204 132.002 86.1947C132.458 84.738 132.686 83.2813 132.686 81.8246C132.686 80.2748 132.443 78.7871 131.957 77.3614C131.501 75.9046 130.816 74.6184 129.904 73.5026C128.992 72.3559 127.898 71.457 126.621 70.8061C125.374 70.1553 123.975 69.8298 122.425 69.8298C120.783 69.8298 119.323 70.1708 118.046 70.8526C116.769 71.5345 115.69 72.4489 114.808 73.5956C113.926 74.7424 113.242 76.0287 112.756 77.4544C112.3 78.8801 112.072 80.3368 112.072 81.8246Z" fill="black"/>
<path d="M11.3851 2.78949H135.439V97.6316H11.3851V2.78949Z" stroke="black" stroke-width="6"/>
</g>
<defs>
<clipPath id="clip0_0_89">
<rect width="148" height="104.652" fill="white"/>
</clipPath>
</defs>
</svg>
